<?xml version="1.0" encoding="UTF-8" standalone="no"?>
<!DOCTYPE svg PUBLIC "-//W3C//DTD SVG 1.1//EN" "http://www.w3.org/Graphics/SVG/1.1/DTD/svg11.dtd">
<svg width="100%" height="100%" viewBox="0 0 282 282" version="1.1" xmlns="http://www.w3.org/2000/svg" xmlns:xlink="http://www.w3.org/1999/xlink" xml:space="preserve" xmlns:serif="http://www.serif.com/" style="fill-rule:evenodd;clip-rule:evenodd;stroke-linejoin:round;stroke-miterlimit:2;">
    <g transform="matrix(1,0,0,1,-2260,-109.429)">
        <g id="White" transform="matrix(1,0,0,1,2150.58,0)">
            <g>
                <g transform="matrix(0.998046,0,0,0.998046,43.7978,-42.2436)">
                    <path d="M206.584,151.969C128.861,151.969 65.759,215.071 65.759,292.794C65.759,370.517 128.861,433.618 206.584,433.618C284.307,433.618 347.408,370.517 347.408,292.794C347.408,215.071 284.307,151.969 206.584,151.969ZM206.584,160.486C279.606,160.486 338.891,219.771 338.891,292.794C338.891,365.816 279.606,425.101 206.584,425.101C133.561,425.101 74.276,365.816 74.276,292.794C74.276,219.771 133.561,160.486 206.584,160.486Z" style="fill:url(#_Linear1);"/>
                </g>
                <g transform="matrix(1.04603,0,0,1.04603,-1667.98,57.5328)">
                    <path d="M1833.56,71.904C1833.56,71.904 1835.24,77.508 1836.69,82.347C1837.98,86.658 1841.36,90.032 1845.67,91.324C1850.51,92.774 1856.11,94.454 1856.11,94.454C1856.11,94.454 1850.51,96.134 1845.67,97.584C1841.36,98.877 1837.98,102.25 1836.69,106.562C1835.24,111.4 1833.56,117.005 1833.56,117.005C1833.56,117.005 1831.88,111.4 1830.43,106.562C1829.14,102.25 1825.76,98.877 1821.45,97.584C1816.61,96.134 1811.01,94.454 1811.01,94.454C1811.01,94.454 1816.63,92.771 1821.47,91.319C1825.77,90.03 1829.13,86.664 1830.42,82.363C1831.88,77.521 1833.56,71.904 1833.56,71.904Z"/>
                </g>
                <g transform="matrix(0.0886909,0,0,0.0886909,-24.7199,234.642)">
                    <path d="M1833.56,71.904C1833.56,71.904 1833.56,71.907 1833.56,71.914C1836.81,82.738 1845.28,91.207 1856.1,94.451C1856.11,94.453 1856.11,94.454 1856.11,94.454C1856.11,94.454 1856.11,94.455 1856.1,94.457C1845.28,97.702 1836.81,106.17 1833.56,116.995C1833.56,117.001 1833.56,117.005 1833.56,117.005C1833.56,117.005 1833.56,117.001 1833.56,116.995C1830.31,106.17 1821.84,97.702 1811.02,94.457C1811.01,94.455 1811.01,94.454 1811.01,94.454C1811.01,94.454 1811.01,94.453 1811.02,94.451C1821.84,91.207 1830.31,82.738 1833.56,71.914C1833.56,71.907 1833.56,71.904 1833.56,71.904Z"/>
                </g>
                <g transform="matrix(0.177382,0,0,0.177382,20.1015,171.113)">
                    <path d="M1833.56,71.904C1833.56,71.904 1833.56,71.905 1833.56,71.908C1836.81,82.736 1845.28,91.207 1856.11,94.453C1856.11,94.454 1856.11,94.454 1856.11,94.454C1856.11,94.454 1856.11,94.455 1856.11,94.455C1845.28,97.701 1836.81,106.173 1833.56,117.001C1833.56,117.003 1833.56,117.005 1833.56,117.005C1833.56,117.005 1833.56,117.003 1833.56,117.001C1830.31,106.173 1821.84,97.701 1811.01,94.455C1811.01,94.455 1811.01,94.454 1811.01,94.454C1811.01,94.454 1811.01,94.454 1811.01,94.453C1821.84,91.207 1830.31,82.736 1833.56,71.908C1833.56,71.905 1833.56,71.904 1833.56,71.904Z"/>
                </g>
                <g transform="matrix(0.177382,0,0,0.177382,-169.64,172.113)">
                    <path d="M1833.56,71.904C1833.56,71.904 1833.56,71.905 1833.56,71.908C1836.81,82.736 1845.28,91.207 1856.11,94.453C1856.11,94.454 1856.11,94.454 1856.11,94.454C1856.11,94.454 1856.11,94.455 1856.11,94.455C1845.28,97.701 1836.81,106.173 1833.56,117.001C1833.56,117.003 1833.56,117.005 1833.56,117.005C1833.56,117.005 1833.56,117.003 1833.56,117.001C1830.31,106.173 1821.84,97.701 1811.01,94.455C1811.01,94.455 1811.01,94.454 1811.01,94.454C1811.01,94.454 1811.01,94.454 1811.01,94.453C1821.84,91.207 1830.31,82.736 1833.56,71.908C1833.56,71.905 1833.56,71.904 1833.56,71.904Z"/>
                </g>
                <g transform="matrix(0.266073,0,0,0.266073,-188.36,122.177)">
                    <path d="M1833.56,71.904C1833.56,71.904 1833.56,71.905 1833.56,71.906C1836.81,82.735 1845.28,91.208 1856.11,94.454C1856.11,94.454 1856.11,94.454 1856.11,94.454C1856.11,94.454 1856.11,94.455 1856.11,94.455C1845.28,97.701 1836.81,106.173 1833.56,117.003C1833.56,117.004 1833.56,117.005 1833.56,117.005C1833.56,117.005 1833.56,117.004 1833.56,117.003C1830.31,106.173 1821.84,97.701 1811.01,94.455C1811.01,94.455 1811.01,94.454 1811.01,94.454C1811.01,94.454 1811.01,94.454 1811.01,94.454C1821.84,91.208 1830.31,82.735 1833.56,71.906C1833.56,71.905 1833.56,71.904 1833.56,71.904Z"/>
                </g>
                <g transform="matrix(0.266073,0,0,0.266073,-287.453,122.177)">
                    <path d="M1833.56,71.904C1833.56,71.904 1833.56,71.905 1833.56,71.906C1836.81,82.735 1845.28,91.208 1856.11,94.454C1856.11,94.454 1856.11,94.454 1856.11,94.454C1856.11,94.454 1856.11,94.455 1856.11,94.455C1845.28,97.701 1836.81,106.173 1833.56,117.003C1833.56,117.004 1833.56,117.005 1833.56,117.005C1833.56,117.005 1833.56,117.004 1833.56,117.003C1830.31,106.173 1821.84,97.701 1811.01,94.455C1811.01,94.455 1811.01,94.454 1811.01,94.454C1811.01,94.454 1811.01,94.454 1811.01,94.454C1821.84,91.208 1830.31,82.735 1833.56,71.906C1833.56,71.905 1833.56,71.904 1833.56,71.904Z"/>
                </g>
                <g transform="matrix(0.0886909,0,0,0.0886909,199.48,234.642)">
                    <path d="M1833.56,71.904C1833.56,71.904 1833.56,71.907 1833.56,71.914C1836.81,82.738 1845.28,91.207 1856.1,94.451C1856.11,94.453 1856.11,94.454 1856.11,94.454C1856.11,94.454 1856.11,94.455 1856.1,94.457C1845.28,97.702 1836.81,106.17 1833.56,116.995C1833.56,117.001 1833.56,117.005 1833.56,117.005C1833.56,117.005 1833.56,117.001 1833.56,116.995C1830.31,106.17 1821.84,97.702 1811.02,94.457C1811.01,94.455 1811.01,94.454 1811.01,94.454C1811.01,94.454 1811.01,94.453 1811.02,94.451C1821.84,91.207 1830.31,82.738 1833.56,71.914C1833.56,71.907 1833.56,71.904 1833.56,71.904Z"/>
                </g>
                <g transform="matrix(1,0,0,1,-4.07445,3.62841)">
                    <g transform="matrix(0.598464,0,0,0.889652,75.2087,36.8707)">
                        <path d="M317.868,208.971L309.122,203.368L309.122,305.628L317.868,305.628L317.868,208.971Z" style="fill:url(#_Linear2);"/>
                    </g>
                    <g transform="matrix(0.598464,0,0,0.889652,66.5515,14.929)">
                        <path d="M317.868,208.971L309.122,203.368L309.122,330.292L317.868,330.292L317.868,208.971Z" style="fill:url(#_Linear3);"/>
                    </g>
                    <g transform="matrix(-0.598464,0,0,0.947391,432.896,19.224)">
                        <path d="M317.868,208.971L309.122,203.368L309.122,305.628L317.868,305.628L317.868,208.971Z" style="fill:url(#_Linear4);"/>
                    </g>
                </g>
                <path d="M273.448,306.257L266.42,306.257L266.42,312.257L358.427,312.257L358.427,306.257L325.426,306.257L325.426,247.026L317.132,237.911L317.132,306.257L312.944,306.257L312.944,225.17L305.749,225.17L305.749,306.257L298.356,306.257L298.356,214.981L273.448,187.553L273.448,306.257ZM286.541,306.094L290.075,306.094L290.075,237.809L286.541,241.17L286.541,306.094ZM288.063,228.645C289.174,228.645 290.075,229.547 290.075,230.658C290.075,231.768 289.174,232.67 288.063,232.67C286.952,232.67 286.05,231.768 286.05,230.658C286.05,229.547 286.952,228.645 288.063,228.645Z" style="fill:url(#_Linear5);"/>
                <path d="M226.348,306.257L233.535,306.257L233.535,312.257L141.529,312.257L141.529,306.257L174.852,306.257L174.852,247.026L194.909,247.026L194.909,306.257L201.44,306.257L201.44,214.981L226.348,187.553L226.348,306.257ZM210.467,306.094L214.002,306.094L214.002,257.809L210.467,261.17L210.467,306.094ZM184.197,306.094L184.197,268.361L187.6,265.793L187.6,306.094L184.197,306.094Z" style="fill:url(#_Linear6);"/>
                <g transform="matrix(1,0,0,1,-4.44325,6)">
                    <g transform="matrix(1,0,0,1,-1.23772,14.3305)">
                        <path d="M303.376,315.198L299.838,318.571C297.431,316.027 294.723,314.755 291.715,314.755C289.176,314.755 287.037,315.623 285.298,317.359C283.559,319.095 282.69,321.235 282.69,323.779C282.69,325.551 283.075,327.125 283.845,328.499C284.615,329.874 285.704,330.953 287.112,331.736C288.52,332.52 290.084,332.912 291.805,332.912C293.273,332.912 294.615,332.638 295.83,332.089C297.046,331.54 298.382,330.543 299.838,329.096L303.267,332.675C301.304,334.591 299.449,335.919 297.703,336.66C295.956,337.401 293.963,337.772 291.723,337.772C287.592,337.772 284.21,336.462 281.579,333.842C278.947,331.223 277.631,327.865 277.631,323.77C277.631,321.121 278.23,318.766 279.429,316.706C280.627,314.647 282.343,312.991 284.578,311.738C286.812,310.485 289.218,309.859 291.795,309.859C293.987,309.859 296.098,310.322 298.127,311.248C300.157,312.174 301.906,313.491 303.376,315.198Z" style="fill:url(#_Linear7);fill-rule:nonzero;"/>
                    </g>
                    <g transform="matrix(1,0,0,1,-35.08,14.9989)">
                        <path d="M278.191,310.528L299.842,310.528L285.752,332.243L299.842,332.243L299.842,337.103L276.103,337.103L290.291,315.532L278.191,315.532L278.191,310.528Z" style="fill:url(#_Linear8);fill-rule:nonzero;"/>
                    </g>
                    <g transform="matrix(1,0,0,1,-65.6261,14.9989)">
                        <path d="M272.33,310.528L295.018,310.528L295.018,315.514L286.176,315.514L286.176,337.103L281.046,337.103L281.046,315.514L272.33,315.514L272.33,310.528Z" style="fill:url(#_Linear9);fill-rule:nonzero;"/>
                    </g>
                </g>
                <g transform="matrix(1.06207,0,0,1.06207,-29.1651,-25.4936)">
                    <path d="M181.39,294.953L185.326,288.6C185.326,288.6 179.431,268.653 179.431,257.763C179.431,211.735 216.8,174.366 262.828,174.366C308.856,174.366 346.225,211.735 346.225,257.763C346.225,268.653 340.33,288.6 340.33,288.6L344.166,295.169C349.415,283.784 352.345,271.113 352.345,257.763C352.345,208.357 312.234,168.246 262.828,168.246C213.422,168.246 173.311,208.357 173.311,257.763C173.311,271.028 176.203,283.624 181.39,294.953Z" style="fill:url(#_Linear10);"/>
                </g>
            </g>
        </g>
    </g>
    <defs>
        <linearGradient id="_Linear1" x1="0" y1="0" x2="1" y2="0" gradientUnits="userSpaceOnUse" gradientTransform="matrix(1.7246e-14,281.648,-281.648,1.7246e-14,204.076,151.969)"><stop offset="0" style="stop-color:#000;stop-opacity:1"/><stop offset="0.54" style="stop-color:#000;stop-opacity:0.78"/><stop offset="1" style="stop-color:#000;stop-opacity:0.7"/></linearGradient>
        <linearGradient id="_Linear2" x1="0" y1="0" x2="1" y2="0" gradientUnits="userSpaceOnUse" gradientTransform="matrix(5.90959e-14,140.334,-1034.19,1.97073e-13,298.837,165.294)"><stop offset="0" style="stop-color:#000;stop-opacity:1"/><stop offset="0.53" style="stop-color:#000;stop-opacity:0.93"/><stop offset="1" style="stop-color:#000;stop-opacity:0.7"/></linearGradient>
        <linearGradient id="_Linear3" x1="0" y1="0" x2="1" y2="0" gradientUnits="userSpaceOnUse" gradientTransform="matrix(5.90959e-14,140.334,-1034.19,1.97073e-13,313.303,189.957)"><stop offset="0" style="stop-color:#000;stop-opacity:1"/><stop offset="0.53" style="stop-color:#000;stop-opacity:0.93"/><stop offset="1" style="stop-color:#000;stop-opacity:0.7"/></linearGradient>
        <linearGradient id="_Linear4" x1="0" y1="0" x2="1" y2="0" gradientUnits="userSpaceOnUse" gradientTransform="matrix(-5.90959e-14,131.782,1034.19,1.85063e-13,298.837,173.847)"><stop offset="0" style="stop-color:#000;stop-opacity:1"/><stop offset="0.53" style="stop-color:#000;stop-opacity:0.93"/><stop offset="1" style="stop-color:#000;stop-opacity:0.7"/></linearGradient>
        <linearGradient id="_Linear5" x1="0" y1="0" x2="1" y2="0" gradientUnits="userSpaceOnUse" gradientTransform="matrix(7.64478e-15,124.849,-169.216,1.03615e-14,306.206,187.553)"><stop offset="0" style="stop-color:#000;stop-opacity:1"/><stop offset="0.53" style="stop-color:#000;stop-opacity:0.93"/><stop offset="1" style="stop-color:#000;stop-opacity:0.7"/></linearGradient>
        <linearGradient id="_Linear6" x1="0" y1="0" x2="1" y2="0" gradientUnits="userSpaceOnUse" gradientTransform="matrix(1.59247,124.849,-169.216,2.15839,198.291,187.553)"><stop offset="0" style="stop-color:#000;stop-opacity:1"/><stop offset="0.53" style="stop-color:#000;stop-opacity:0.93"/><stop offset="1" style="stop-color:#000;stop-opacity:0.7"/></linearGradient>
        <linearGradient id="_Linear7" x1="0" y1="0" x2="1" y2="0" gradientUnits="userSpaceOnUse" gradientTransform="matrix(179.034,0,0,183.856,173.311,260.174)"><stop offset="0" style="stop-color:#000;stop-opacity:1"/><stop offset="1" style="stop-color:#000;stop-opacity:0.7"/></linearGradient>
        <linearGradient id="_Linear8" x1="0" y1="0" x2="1" y2="0" gradientUnits="userSpaceOnUse" gradientTransform="matrix(179.034,0,0,183.856,173.311,260.174)"><stop offset="0" style="stop-color:#000;stop-opacity:1"/><stop offset="1" style="stop-color:#000;stop-opacity:0.7"/></linearGradient>
        <linearGradient id="_Linear9" x1="0" y1="0" x2="1" y2="0" gradientUnits="userSpaceOnUse" gradientTransform="matrix(179.034,0,0,183.856,173.311,260.174)"><stop offset="0" style="stop-color:#000;stop-opacity:1"/><stop offset="1" style="stop-color:#000;stop-opacity:0.7"/></linearGradient>
        <linearGradient id="_Linear10" x1="0" y1="0" x2="1" y2="0" gradientUnits="userSpaceOnUse" gradientTransform="matrix(9.17041e-15,149.764,-106.173,6.5012e-15,263.865,168.246)"><stop offset="0" style="stop-color:#000;stop-opacity:1"/><stop offset="1" style="stop-color:#000;stop-opacity:0.7"/></linearGradient>
    </defs>
</svg>
